<?xml version="1.0" encoding="iso-8859-1"?>
<!-- Generator: Adobe Illustrator 19.0.0, SVG Export Plug-In . SVG Version: 6.00 Build 0)  -->
<svg xmlns="http://www.w3.org/2000/svg" xmlns:xlink="http://www.w3.org/1999/xlink" version="1.1" id="Layer_1" x="0px" y="0px" viewBox="0 0 508.148 508.148" style="enable-background:new 0 0 508.148 508.148;" xml:space="preserve" width="512" height="512">
<g>
	<g>
		<g>
			<g>
				<rect x="55.678" y="79.086" style="fill:rgb(0,0,0);" width="15" height="63.633"/>
			</g>
			<g>
				<rect x="437.47" y="373.385" style="fill:rgb(0,0,0);" width="15" height="55.678"/>
			</g>
			<g>
				<rect x="437.47" y="309.752" style="fill:rgb(0,0,0);" width="15" height="15.908"/>
			</g>
		</g>
		<g>
			<rect x="126.81" y="174.988" style="fill:rgb(0,0,0);" width="63.632" height="15"/>
		</g>
		<g>
			<rect x="126.81" y="357.931" style="fill:rgb(0,0,0);" width="63.632" height="15"/>
		</g>
		<g>
			<rect x="317.706" y="389.746" style="fill:rgb(0,0,0);" width="63.632" height="15"/>
		</g>
		<g>
			<rect x="317.706" y="206.805" style="fill:rgb(0,0,0);" width="63.632" height="15"/>
		</g>
		<g>
			<rect x="437.47" y="102.948" style="fill:rgb(0,0,0);" width="15" height="15.908"/>
		</g>
		<g>
			<path style="fill:rgb(0,0,0);" d="M38.862,446.338V284.523c13.682-3.371,23.862-15.741,23.862-30.449s-10.18-27.078-23.862-30.449     V61.812c11.278-2.779,20.17-11.672,22.949-22.949h161.814c3.371,13.682,15.741,23.862,30.449,23.862s27.078-10.18,30.449-23.862     h49.091v-15h-49.091C281.152,10.18,268.782,0,254.074,0s-27.078,10.18-30.449,23.862H61.811C58.44,10.18,46.07,0,31.362,0     C14.069,0,0,14.069,0,31.362C0,46.07,10.18,58.44,23.862,61.812v161.813C10.18,226.996,0,239.366,0,254.074     s10.18,27.078,23.862,30.449v161.814C10.18,449.709,0,462.078,0,476.786c0,17.293,14.069,31.362,31.362,31.362     c14.708,0,27.078-10.18,30.449-23.862h49.091v-15H61.811C59.032,458.009,50.14,449.116,38.862,446.338z M254.074,15     c9.022,0,16.362,7.34,16.362,16.362s-7.34,16.362-16.362,16.362s-16.362-7.34-16.362-16.362S245.052,15,254.074,15z M15,31.362     C15,22.34,22.34,15,31.362,15s16.362,7.34,16.362,16.362s-7.34,16.362-16.362,16.362S15,40.385,15,31.362z M15,254.074     c0-9.022,7.34-16.362,16.362-16.362s16.362,7.34,16.362,16.362s-7.34,16.362-16.362,16.362S15,263.097,15,254.074z      M31.362,493.148c-9.022,0-16.362-7.34-16.362-16.362c0-9.021,7.34-16.361,16.362-16.361s16.362,7.34,16.362,16.361     C47.724,485.809,40.384,493.148,31.362,493.148z"/>
			<path style="fill:rgb(0,0,0);" d="M508.148,254.074c0-14.708-10.18-27.078-23.862-30.449V61.812     c13.682-3.371,23.862-15.741,23.862-30.449C508.148,14.069,494.08,0,476.787,0c-14.708,0-27.078,10.18-30.449,23.862h-88.861v15     h88.861c2.779,11.278,11.671,20.171,22.949,22.949v161.813c-13.683,3.371-23.862,15.741-23.862,30.449     s10.18,27.078,23.862,30.449v161.814c-11.278,2.778-20.171,11.671-22.949,22.948H284.523     c-3.371-13.682-15.741-23.861-30.449-23.861s-27.078,10.179-30.449,23.861h-88.861v15h88.861     c3.371,13.682,15.741,23.862,30.449,23.862s27.078-10.18,30.449-23.862h161.814c3.371,13.682,15.741,23.862,30.449,23.862     c17.293,0,31.362-14.069,31.362-31.362c0-14.708-10.18-27.077-23.862-30.448V284.523     C497.969,281.152,508.148,268.782,508.148,254.074z M254.074,493.148c-9.022,0-16.362-7.34-16.362-16.362     c0-9.021,7.34-16.361,16.362-16.361s16.362,7.34,16.362,16.361C270.436,485.809,263.096,493.148,254.074,493.148z      M460.424,31.362c0-9.022,7.34-16.362,16.362-16.362s16.362,7.34,16.362,16.362s-7.34,16.362-16.362,16.362     S460.424,40.385,460.424,31.362z M460.424,254.074c0-9.022,7.34-16.362,16.362-16.362s16.362,7.34,16.362,16.362     s-7.34,16.362-16.362,16.362S460.424,263.097,460.424,254.074z M493.148,476.786c0,9.022-7.34,16.362-16.362,16.362     s-16.362-7.34-16.362-16.362c0-9.021,7.34-16.361,16.362-16.361S493.148,467.765,493.148,476.786z"/>
			<rect x="55.678" y="158.626" style="fill:rgb(0,0,0);" width="15" height="15.908"/>
			<rect x="55.678" y="190.442" style="fill:rgb(0,0,0);" width="15" height="15.908"/>
			<rect x="437.47" y="341.568" style="fill:rgb(0,0,0);" width="15" height="15.908"/>
			<rect x="126.81" y="206.805" style="fill:rgb(0,0,0);" width="63.632" height="15"/>
			<rect x="126.81" y="389.746" style="fill:rgb(0,0,0);" width="63.632" height="15"/>
			<rect x="317.706" y="357.931" style="fill:rgb(0,0,0);" width="63.632" height="15"/>
			<path style="fill:rgb(0,0,0);" d="M412.7,253.62V147.565l-52.118-52.117h-74.238v87.494h-64.54v-35.377l-52.118-52.117H95.448     V253.62h39.77v24.771h-39.77v158.172h126.356v-47.724h64.54v47.724H412.7v-47.27h-15v32.27h-96.356V293.391h48.632v47.724H397.7     v24.316h15v-34.923l-52.118-52.117h-19.468V253.62H412.7z M364.976,121.055l22.118,22.117h-22.118V121.055z M301.344,110.448     h48.632v47.724H397.7v80.448h-96.356V110.448z M174.08,121.055l22.118,22.117H174.08V121.055z M110.448,110.448h48.632v47.724     h47.724v80.448h-96.356V110.448z M110.448,421.563V293.391h48.632v47.724h47.724v80.448H110.448z M174.08,303.997l22.118,22.117     H174.08V303.997z M364.976,303.997l22.118,22.117h-22.118V303.997z M326.114,278.391h-39.77v95.448h-64.54v-43.331     l-52.118-52.117h-19.468V253.62h71.586v-55.678h64.54v55.678h39.77V278.391z"/>
			<rect x="317.706" y="174.988" style="fill:rgb(0,0,0);" width="63.632" height="15"/>
			<rect x="437.47" y="71.132" style="fill:rgb(0,0,0);" width="15" height="15.908"/>
			<rect x="437.47" y="134.765" style="fill:rgb(0,0,0);" width="15" height="15.907"/>
			<rect x="55.678" y="421.108" style="fill:rgb(0,0,0);" width="15" height="15.908"/>
			<rect x="55.678" y="389.293" style="fill:rgb(0,0,0);" width="15" height="15.907"/>
		</g>
		<g>
			<rect x="55.678" y="357.477" style="fill:rgb(0,0,0);" width="15" height="15.908"/>
		</g>
	</g>
</g>















</svg>